<svg width="120" height="40" viewBox="0 0 120 40" fill="none" xmlns="http://www.w3.org/2000/svg">
  <!-- Building icon -->
  <rect x="2" y="8" width="4" height="28" fill="#2563eb" rx="1"/>
  <rect x="6" y="12" width="4" height="24" fill="#3b82f6" rx="1"/>
  <rect x="10" y="6" width="4" height="30" fill="#2563eb" rx="1"/>
  <rect x="14" y="10" width="4" height="26" fill="#3b82f6" rx="1"/>
  
  <!-- Windows -->
  <rect x="3" y="14" width="2" height="2" fill="white" rx="0.5"/>
  <rect x="3" y="18" width="2" height="2" fill="white" rx="0.5"/>
  <rect x="3" y="22" width="2" height="2" fill="white" rx="0.5"/>
  <rect x="7" y="18" width="2" height="2" fill="white" rx="0.5"/>
  <rect x="7" y="22" width="2" height="2" fill="white" rx="0.5"/>
  <rect x="11" y="12" width="2" height="2" fill="white" rx="0.5"/>
  <rect x="11" y="16" width="2" height="2" fill="white" rx="0.5"/>
  <rect x="11" y="20" width="2" height="2" fill="white" rx="0.5"/>
  <rect x="15" y="16" width="2" height="2" fill="white" rx="0.5"/>
  <rect x="15" y="20" width="2" height="2" fill="white" rx="0.5"/>
  
  <!-- Text -->
  <text x="24" y="24" font-family="Arial, sans-serif" font-size="14" font-weight="bold" fill="#1e293b">Brikvest</text>
</svg>