<svg width="32" height="32" viewBox="0 0 32 32" fill="none" xmlns="http://www.w3.org/2000/svg">
  <!-- Building icon for favicon -->
  <rect x="4" y="8" width="3" height="20" fill="#2563eb" rx="1"/>
  <rect x="8" y="12" width="3" height="16" fill="#3b82f6" rx="1"/>
  <rect x="12" y="6" width="3" height="22" fill="#2563eb" rx="1"/>
  <rect x="16" y="10" width="3" height="18" fill="#3b82f6" rx="1"/>
  <rect x="20" y="8" width="3" height="20" fill="#2563eb" rx="1"/>
  <rect x="24" y="14" width="3" height="14" fill="#3b82f6" rx="1"/>
  
  <!-- Windows -->
  <rect x="5" y="14" width="1" height="1" fill="white"/>
  <rect x="5" y="18" width="1" height="1" fill="white"/>
  <rect x="5" y="22" width="1" height="1" fill="white"/>
  <rect x="9" y="16" width="1" height="1" fill="white"/>
  <rect x="9" y="20" width="1" height="1" fill="white"/>
  <rect x="13" y="12" width="1" height="1" fill="white"/>
  <rect x="13" y="16" width="1" height="1" fill="white"/>
  <rect x="13" y="20" width="1" height="1" fill="white"/>
  <rect x="17" y="16" width="1" height="1" fill="white"/>
  <rect x="17" y="20" width="1" height="1" fill="white"/>
  <rect x="21" y="14" width="1" height="1" fill="white"/>
  <rect x="21" y="18" width="1" height="1" fill="white"/>
  <rect x="25" y="18" width="1" height="1" fill="white"/>
  <rect x="25" y="22" width="1" height="1" fill="white"/>
</svg>