<svg width="1200" height="630" viewBox="0 0 1200 630" fill="none" xmlns="http://www.w3.org/2000/svg">
  <!-- Background gradient -->
  <defs>
    <linearGradient id="bg" x1="0%" y1="0%" x2="100%" y2="100%">
      <stop offset="0%" style="stop-color:#1e40af;stop-opacity:1" />
      <stop offset="100%" style="stop-color:#3b82f6;stop-opacity:1" />
    </linearGradient>
  </defs>
  <rect width="1200" height="630" fill="url(#bg)"/>
  
  <!-- Building skyline -->
  <rect x="100" y="250" width="60" height="300" fill="#ffffff" opacity="0.1" rx="4"/>
  <rect x="180" y="200" width="50" height="350" fill="#ffffff" opacity="0.15" rx="4"/>
  <rect x="250" y="180" width="70" height="370" fill="#ffffff" opacity="0.1" rx="4"/>
  <rect x="340" y="220" width="55" height="330" fill="#ffffff" opacity="0.15" rx="4"/>
  <rect x="420" y="160" width="65" height="390" fill="#ffffff" opacity="0.1" rx="4"/>
  <rect x="510" y="240" width="45" height="310" fill="#ffffff" opacity="0.15" rx="4"/>
  
  <!-- Main logo and text -->
  <g transform="translate(600, 200)">
    <!-- Logo buildings -->
    <rect x="0" y="40" width="20" height="120" fill="#ffffff" rx="2"/>
    <rect x="25" y="60" width="20" height="100" fill="#ffffff" opacity="0.8" rx="2"/>
    <rect x="50" y="30" width="20" height="130" fill="#ffffff" rx="2"/>
    <rect x="75" y="50" width="20" height="110" fill="#ffffff" opacity="0.8" rx="2"/>
    
    <!-- Windows -->
    <rect x="5" y="60" width="10" height="8" fill="#1e40af" rx="1"/>
    <rect x="5" y="75" width="10" height="8" fill="#1e40af" rx="1"/>
    <rect x="5" y="90" width="10" height="8" fill="#1e40af" rx="1"/>
    <rect x="30" y="80" width="10" height="8" fill="#1e40af" rx="1"/>
    <rect x="30" y="95" width="10" height="8" fill="#1e40af" rx="1"/>
    <rect x="55" y="50" width="10" height="8" fill="#1e40af" rx="1"/>
    <rect x="55" y="65" width="10" height="8" fill="#1e40af" rx="1"/>
    <rect x="55" y="80" width="10" height="8" fill="#1e40af" rx="1"/>
    <rect x="80" y="70" width="10" height="8" fill="#1e40af" rx="1"/>
    <rect x="80" y="85" width="10" height="8" fill="#1e40af" rx="1"/>
  </g>
  
  <!-- Main title -->
  <text x="600" y="280" font-family="Arial, sans-serif" font-size="72" font-weight="bold" fill="#ffffff" text-anchor="middle">Brikvest</text>
  
  <!-- Subtitle -->
  <text x="600" y="330" font-family="Arial, sans-serif" font-size="36" fill="#ffffff" opacity="0.9" text-anchor="middle">Fractional Real Estate Investment</text>
  
  <!-- Key value proposition -->
  <text x="600" y="400" font-family="Arial, sans-serif" font-size="28" fill="#ffffff" opacity="0.8" text-anchor="middle">Start investing with as little as ₦30,000</text>
  
  <!-- Call to action -->
  <rect x="450" y="450" width="300" height="60" fill="#ffffff" rx="30"/>
  <text x="600" y="485" font-family="Arial, sans-serif" font-size="24" font-weight="bold" fill="#1e40af" text-anchor="middle">Browse Properties</text>
</svg>